<svg width="710" height="800" viewBox="0 0 710 800" fill="none" xmlns="http://www.w3.org/2000/svg">
<path d="M709.861 0.782715L643.314 721.586L354.995 799.217L66.6719 721.586L0.139038 0.782715H709.861ZM575.766 147.347H354.736H129.791L140.548 234.391H354.736H366.767L354.736 239.398L148.377 325.345L155.22 410.428L354.736 411.075L461.67 411.414L454.825 524.861L354.734 553.041V552.951L353.914 553.18L257.252 528.778L251.386 458.356H251.066H161.406H161.091L172.827 594.305L354.737 648.1V648.003L355.066 648.1L536.002 595.284L559.472 325.345H354.737H354.233L354.737 325.126L566.972 234.391L575.766 147.347Z" fill="#0EC7C7"/>
</svg>
